# xmcd
#
# Track frame offsets:
# 150
# 13699
# 26477
# 37343
# 51361
# 63744
# 73905
# 88683
# 103780
# 123272
# 138966
#
# Disc length: 2101 seconds
#
#
# Revision: 0
# Processed by: cddbd v1.5.2PL0 Copyright (c) Steve Scherf et al.
# Submitted via: FreeRIP 2.945 
#
DISCID=a208330b
DTITLE=Shania Twain - What Made You Say That
DYEAR=1900
DGENRE=country
TTITLE0=What Made You Say That
TTITLE1=You Lay a Whole Lot of Love on Me
TTITLE2=Dance with the One that Brought You
TTITLE3=Still Under the Weather
TTITLE4=God Ain't Gonna Getcha for That
TTITLE5=Got a Hold on Me
TTITLE6=There Goes the Neighborhood
TTITLE7=Forget Me
TTITLE8=When He Leaves You
TTITLE9=Crime of the Century
TTITLE10=Home Ain't Where His Heart is any More
EXTD=
EXTT0=
EXTT1=
EXTT2=
EXTT3=
EXTT4=
EXTT5=
EXTT6=
EXTT7=
EXTT8=
EXTT9=
EXTT10=
PLAYORDER=
